<?xml version="1.0" encoding="UTF-8"?>
<svg version="1.1" xmlns="http://www.w3.org/2000/svg" width="350px" height="350px">
<path d="M0 0 C165 0 330 0 500 0 C500 165 500 330 500 500 C335 500 170 500 0 500 C0 335 0 170 0 0 Z " fill="none" transform="translate(0,0)"/>
<path d="M0 0 C3.13738154 1.39080525 5.25475281 3.01022204 7.66699219 5.43994141 C8.71762848 6.49080429 8.71762848 6.49080429 9.78948975 7.56289673 C10.53442688 8.31815643 11.27936401 9.07341614 12.046875 9.8515625 C12.81807678 10.62559418 13.58927856 11.39962585 14.3838501 12.19711304 C16.84396856 14.66841923 19.29703848 17.14659183 21.75 19.625 C23.41750894 21.30254052 25.08547232 22.97962945 26.75390625 24.65625 C30.8412237 28.76560919 34.92277696 32.88062647 39 37 C37.60919475 40.13738154 35.98977796 42.25475281 33.56005859 44.66699219 C32.85948334 45.36741638 32.15890808 46.06784058 31.43710327 46.78948975 C30.68184357 47.53442688 29.92658386 48.27936401 29.1484375 49.046875 C28.37440582 49.81807678 27.60037415 50.58927856 26.80288696 51.3838501 C24.33158077 53.84396856 21.85340817 56.29703848 19.375 58.75 C17.69745948 60.41750894 16.02037055 62.08547232 14.34375 63.75390625 C10.23439081 67.8412237 6.11937353 71.92277696 2 76 C-1.13738154 74.60919475 -3.25475281 72.98977796 -5.66699219 70.56005859 C-6.36741638 69.85948334 -7.06784058 69.15890808 -7.78948975 68.43710327 C-8.90689545 67.30421371 -8.90689545 67.30421371 -10.046875 66.1484375 C-10.81807678 65.37440582 -11.58927856 64.60037415 -12.3838501 63.80288696 C-14.84396856 61.33158077 -17.29703848 58.85340817 -19.75 56.375 C-21.41750894 54.69745948 -23.08547232 53.02037055 -24.75390625 51.34375 C-28.8412237 47.23439081 -32.92277696 43.11937353 -37 39 C-35.60919475 35.86261846 -33.98977796 33.74524719 -31.56005859 31.33300781 C-30.85948334 30.63258362 -30.15890808 29.93215942 -29.43710327 29.21051025 C-28.68184357 28.46557312 -27.92658386 27.72063599 -27.1484375 26.953125 C-26.37440582 26.18192322 -25.60037415 25.41072144 -24.80288696 24.6161499 C-22.33158077 22.15603144 -19.85340817 19.70296152 -17.375 17.25 C-15.69745948 15.58249106 -14.02037055 13.91452768 -12.34375 12.24609375 C-8.23439081 8.1587763 -4.11937353 4.07722304 0 0 Z " fill="none" transform="translate(249,212)"/>
<path d="M0 0 C3.13738154 1.39080525 5.25475281 3.01022204 7.66699219 5.43994141 C8.71762848 6.49080429 8.71762848 6.49080429 9.78948975 7.56289673 C10.53442688 8.31815643 11.27936401 9.07341614 12.046875 9.8515625 C12.81807678 10.62559418 13.58927856 11.39962585 14.3838501 12.19711304 C16.84396856 14.66841923 19.29703848 17.14659183 21.75 19.625 C23.41750894 21.30254052 25.08547232 22.97962945 26.75390625 24.65625 C30.8412237 28.76560919 34.92277696 32.88062647 39 37 C37.60919475 40.13738154 35.98977796 42.25475281 33.56005859 44.66699219 C32.85948334 45.36741638 32.15890808 46.06784058 31.43710327 46.78948975 C30.68184357 47.53442688 29.92658386 48.27936401 29.1484375 49.046875 C28.37440582 49.81807678 27.60037415 50.58927856 26.80288696 51.3838501 C24.33158077 53.84396856 21.85340817 56.29703848 19.375 58.75 C17.69745948 60.41750894 16.02037055 62.08547232 14.34375 63.75390625 C10.23439081 67.8412237 6.11937353 71.92277696 2 76 C-1.13738154 74.60919475 -3.25475281 72.98977796 -5.66699219 70.56005859 C-6.36741638 69.85948334 -7.06784058 69.15890808 -7.78948975 68.43710327 C-8.90689545 67.30421371 -8.90689545 67.30421371 -10.046875 66.1484375 C-10.81807678 65.37440582 -11.58927856 64.60037415 -12.3838501 63.80288696 C-14.84396856 61.33158077 -17.29703848 58.85340817 -19.75 56.375 C-21.41750894 54.69745948 -23.08547232 53.02037055 -24.75390625 51.34375 C-28.8412237 47.23439081 -32.92277696 43.11937353 -37 39 C-35.60919475 35.86261846 -33.98977796 33.74524719 -31.56005859 31.33300781 C-30.85948334 30.63258362 -30.15890808 29.93215942 -29.43710327 29.21051025 C-28.68184357 28.46557312 -27.92658386 27.72063599 -27.1484375 26.953125 C-26.37440582 26.18192322 -25.60037415 25.41072144 -24.80288696 24.6161499 C-22.33158077 22.15603144 -19.85340817 19.70296152 -17.375 17.25 C-15.69745948 15.58249106 -14.02037055 13.91452768 -12.34375 12.24609375 C-8.23439081 8.1587763 -4.11937353 4.07722304 0 0 Z M-2.61376953 13.38671875 C-3.70859409 14.48186113 -4.79790282 15.58253455 -5.8828125 16.6875 C-6.45707977 17.26459717 -7.03134705 17.84169434 -7.62301636 18.4362793 C-9.4617411 20.28622702 -11.29340305 22.14299749 -13.125 24 C-14.3680316 25.25305865 -15.61151546 26.50566884 -16.85546875 27.7578125 C-19.90892412 30.83335632 -22.95606145 33.91503802 -26 37 C-24.39626852 41.00517396 -21.57886014 43.6771098 -18.5546875 46.640625 C-18.02481232 47.16767029 -17.49493713 47.69471558 -16.94900513 48.23773193 C-15.26232175 49.91325675 -13.56880436 51.58167722 -11.875 53.25 C-10.72740612 54.38755851 -9.58026539 55.52557436 -8.43359375 56.6640625 C-5.62761863 59.44803465 -2.81549536 62.2256576 0 65 C4.00517396 63.39626852 6.6771098 60.57886014 9.640625 57.5546875 C10.16767029 57.02481232 10.69471558 56.49493713 11.23773193 55.94900513 C12.91325675 54.26232175 14.58167722 52.56880436 16.25 50.875 C17.38755851 49.72740612 18.52557436 48.58026539 19.6640625 47.43359375 C22.44803465 44.62761863 25.2256576 41.81549536 28 39 C26.39577001 35.02009412 23.61753303 32.32807684 20.625 29.359375 C20.09986816 28.83232971 19.57473633 28.30528442 19.03369141 27.76226807 C17.92661117 26.65383072 16.8170167 25.54789954 15.70507812 24.44433594 C13.99893025 22.74893699 12.30375953 21.0430839 10.609375 19.3359375 C9.53189108 18.25977442 8.45378733 17.18423149 7.375 16.109375 C6.86662598 15.59695251 6.35825195 15.08453003 5.83447266 14.55657959 C1.84775754 10.34525709 1.84775754 10.34525709 -2.61376953 13.38671875 Z " fill="#665CC9" transform="translate(249,212)"/>
<path d="M0 0 C3.68069887 1.53643852 5.98775204 3.78150945 8.75 6.625 C9.54921875 7.44226563 10.3484375 8.25953125 11.171875 9.1015625 C11.77515625 9.72804687 12.3784375 10.35453125 13 11 C11.46356148 14.68069887 9.21849055 16.98775204 6.375 19.75 C5.55773437 20.54921875 4.74046875 21.3484375 3.8984375 22.171875 C3.27195313 22.77515625 2.64546875 23.3784375 2 24 C-1.68069887 22.46356148 -3.98775204 20.21849055 -6.75 17.375 C-7.54921875 16.55773437 -8.3484375 15.74046875 -9.171875 14.8984375 C-9.77515625 14.27195313 -10.3784375 13.64546875 -11 13 C-9.46356148 9.31930113 -7.21849055 7.01224796 -4.375 4.25 C-3.55773437 3.45078125 -2.74046875 2.6515625 -1.8984375 1.828125 C-0.95871094 0.92320312 -0.95871094 0.92320312 0 0 Z " fill="#515BC4" transform="translate(249,238)"/>
<path d="M0 0 C3.68069887 1.53643852 5.98775204 3.78150945 8.75 6.625 C9.54921875 7.44226563 10.3484375 8.25953125 11.171875 9.1015625 C11.77515625 9.72804687 12.3784375 10.35453125 13 11 C12.67 11.99 12.34 12.98 12 14 C11.49984375 13.34515625 10.9996875 12.6903125 10.484375 12.015625 C7.14995607 9.31034172 4.33935756 9.54901078 0.25 9.75 C-0.44738281 9.76804688 -1.14476562 9.78609375 -1.86328125 9.8046875 C-3.57611539 9.85161446 -5.28823824 9.92335395 -7 10 C-7 10.66 -7 11.32 -7 12 C-8.32 12.33 -9.64 12.66 -11 13 C-9.46356148 9.31930113 -7.21849055 7.01224796 -4.375 4.25 C-3.55773437 3.45078125 -2.74046875 2.6515625 -1.8984375 1.828125 C-0.95871094 0.92320312 -0.95871094 0.92320312 0 0 Z " fill="#8B65D4" transform="translate(249,238)"/>
<path d="M0 0 C1.01513672 -0.01740234 1.01513672 -0.01740234 2.05078125 -0.03515625 C5.09101822 -0.01716668 7.01977577 0.00339792 9.46875 1.8984375 C9.97921875 2.62933594 9.97921875 2.62933594 10.5 3.375 C10.17 4.365 9.84 5.355 9.5 6.375 C3.23 6.375 -3.04 6.375 -9.5 6.375 C-9.83 5.385 -10.16 4.395 -10.5 3.375 C-7.80669018 -0.48132997 -4.29411062 -0.07361332 0 0 Z " fill="#695DCA" transform="translate(249.5,246.625)"/>
<path d="M0 0 C0 1.32 0 2.64 0 4 C-1.98 4.99 -1.98 4.99 -4 6 C-5.37562854 4.71034824 -6.70766393 3.37310707 -8 2 C-8 1.34 -8 0.68 -8 0 C-4.71023192 -1.09658936 -3.28696233 -0.79953138 0 0 Z " fill="#3457BC" transform="translate(253,256)"/>
<path d="M0 0 C3.16115776 1.36983503 3.9927092 1.9890638 6 5 C4 6 4 6 0.625 5.9375 C-2.85737645 5.99754097 -4.09235054 6.36684887 -7 8 C-6.02133662 6.85373678 -5.04205413 5.70800212 -4.0625 4.5625 C-3.51722656 3.92441406 -2.97195312 3.28632813 -2.41015625 2.62890625 C-1.63204305 1.73008851 -0.84063472 0.84063472 0 0 Z " fill="#BB7BE2" transform="translate(249,238)"/>
<path d="M0 0 C4.62 0 9.24 0 14 0 C13.34 1.32 12.68 2.64 12 4 C11.01 3.34 10.02 2.68 9 2 C6.93089407 1.97250522 6.93089407 1.97250522 4.8125 2.375 C3.554375 2.58125 2.29625 2.7875 1 3 C0.67 2.01 0.34 1.02 0 0 Z " fill="#445BC0" transform="translate(243,254)"/>
<path d="M0 0 C3.36591866 1.44253657 5.51047079 3.33264727 8 6 C7.67 6.99 7.34 7.98 7 9 C4.03595495 6.19195732 1.55500981 3.81684226 0 0 Z " fill="#8D73D6" transform="translate(254,243)"/>
<path d="M0 0 C1.98 0 3.96 0 6 0 C5.34 1.32 4.68 2.64 4 4 C2.68 3.34 1.36 2.68 0 2 C0 1.34 0 0.68 0 0 Z " fill="#2C5EBA" transform="translate(247,258)"/>
<path d="M0 0 C0.99 0.99 1.98 1.98 3 3 C-3.625 5 -3.625 5 -7 5 C-4.87219421 2.65941363 -2.88437779 1.29299694 0 0 Z " fill="#A76FDC" transform="translate(249,240)"/>
</svg>
