<?xml version="1.0" encoding="UTF-8"?>
<svg version="1.1" xmlns="http://www.w3.org/2000/svg" width="350px" height="350px">
<path d="M0 0 C165 0 330 0 500 0 C500 165 500 330 500 500 C335 500 170 500 0 500 C0 335 0 170 0 0 Z " fill="none" transform="translate(0,0)"/>
<path d="M0 0 C2.88330643 1.30683699 4.94564108 2.69722137 7.17645264 4.9359436 C7.77935623 5.53609787 8.38225983 6.13625214 9.00343323 6.7545929 C9.65295456 7.41130478 10.30247589 8.06801666 10.97167969 8.74462891 C11.6647673 9.43742447 12.35785492 10.13022003 13.07194519 10.8440094 C15.36002799 13.13348474 17.64094651 15.4299613 19.921875 17.7265625 C21.5075592 19.31597709 23.09368574 20.90495048 24.68023682 22.49349976 C28.85377854 26.67467585 33.02127917 30.86182346 37.18756104 35.05023193 C41.44042719 39.32356063 45.69896419 43.59122973 49.95703125 47.859375 C58.31025559 56.23404581 66.65711048 64.61503443 75 73 C73.69316301 75.88330643 72.30277863 77.94564108 70.0640564 80.17645264 C69.46390213 80.77935623 68.86374786 81.38225983 68.2454071 82.00343323 C67.58869522 82.65295456 66.93198334 83.30247589 66.25537109 83.97167969 C65.56257553 84.6647673 64.86977997 85.35785492 64.1559906 86.07194519 C61.86651526 88.36002799 59.5700387 90.64094651 57.2734375 92.921875 C55.68402291 94.5075592 54.09504952 96.09368574 52.50650024 97.68023682 C48.32532415 101.85377854 44.13817654 106.02127917 39.94976807 110.18756104 C35.67643937 114.44042719 31.40877027 118.69896419 27.140625 122.95703125 C18.76595419 131.31025559 10.38496557 139.65711048 2 148 C-0.88330643 146.69316301 -2.94564108 145.30277863 -5.17645264 143.0640564 C-5.77935623 142.46390213 -6.38225983 141.86374786 -7.00343323 141.2454071 C-7.65295456 140.58869522 -8.30247589 139.93198334 -8.97167969 139.25537109 C-9.6647673 138.56257553 -10.35785492 137.86977997 -11.07194519 137.1559906 C-13.36002799 134.86651526 -15.64094651 132.5700387 -17.921875 130.2734375 C-19.5075592 128.68402291 -21.09368574 127.09504952 -22.68023682 125.50650024 C-26.85377854 121.32532415 -31.02127917 117.13817654 -35.18756104 112.94976807 C-39.44042719 108.67643937 -43.69896419 104.40877027 -47.95703125 100.140625 C-56.31025559 91.76595419 -64.65711048 83.38496557 -73 75 C-71.69316301 72.11669357 -70.30277863 70.05435892 -68.0640564 67.82354736 C-67.46390213 67.22064377 -66.86374786 66.61774017 -66.2454071 65.99656677 C-65.58869522 65.34704544 -64.93198334 64.69752411 -64.25537109 64.02832031 C-63.56257553 63.3352327 -62.86977997 62.64214508 -62.1559906 61.92805481 C-59.86651526 59.63997201 -57.5700387 57.35905349 -55.2734375 55.078125 C-53.68402291 53.4924408 -52.09504952 51.90631426 -50.50650024 50.31976318 C-46.32532415 46.14622146 -42.13817654 41.97872083 -37.94976807 37.81243896 C-33.67643937 33.55957281 -29.40877027 29.30103581 -25.140625 25.04296875 C-16.76595419 16.68974441 -8.38496557 8.34288952 0 0 Z " fill="none" transform="translate(249,176)"/>
<path d="M0 0 C2.88330643 1.30683699 4.94564108 2.69722137 7.17645264 4.9359436 C7.77935623 5.53609787 8.38225983 6.13625214 9.00343323 6.7545929 C9.65295456 7.41130478 10.30247589 8.06801666 10.97167969 8.74462891 C11.6647673 9.43742447 12.35785492 10.13022003 13.07194519 10.8440094 C15.36002799 13.13348474 17.64094651 15.4299613 19.921875 17.7265625 C21.5075592 19.31597709 23.09368574 20.90495048 24.68023682 22.49349976 C28.85377854 26.67467585 33.02127917 30.86182346 37.18756104 35.05023193 C41.44042719 39.32356063 45.69896419 43.59122973 49.95703125 47.859375 C58.31025559 56.23404581 66.65711048 64.61503443 75 73 C73.69316301 75.88330643 72.30277863 77.94564108 70.0640564 80.17645264 C69.46390213 80.77935623 68.86374786 81.38225983 68.2454071 82.00343323 C67.58869522 82.65295456 66.93198334 83.30247589 66.25537109 83.97167969 C65.56257553 84.6647673 64.86977997 85.35785492 64.1559906 86.07194519 C61.86651526 88.36002799 59.5700387 90.64094651 57.2734375 92.921875 C55.68402291 94.5075592 54.09504952 96.09368574 52.50650024 97.68023682 C48.32532415 101.85377854 44.13817654 106.02127917 39.94976807 110.18756104 C35.67643937 114.44042719 31.40877027 118.69896419 27.140625 122.95703125 C18.76595419 131.31025559 10.38496557 139.65711048 2 148 C-0.88330643 146.69316301 -2.94564108 145.30277863 -5.17645264 143.0640564 C-5.77935623 142.46390213 -6.38225983 141.86374786 -7.00343323 141.2454071 C-7.65295456 140.58869522 -8.30247589 139.93198334 -8.97167969 139.25537109 C-9.6647673 138.56257553 -10.35785492 137.86977997 -11.07194519 137.1559906 C-13.36002799 134.86651526 -15.64094651 132.5700387 -17.921875 130.2734375 C-19.5075592 128.68402291 -21.09368574 127.09504952 -22.68023682 125.50650024 C-26.85377854 121.32532415 -31.02127917 117.13817654 -35.18756104 112.94976807 C-39.44042719 108.67643937 -43.69896419 104.40877027 -47.95703125 100.140625 C-56.31025559 91.76595419 -64.65711048 83.38496557 -73 75 C-71.69316301 72.11669357 -70.30277863 70.05435892 -68.0640564 67.82354736 C-67.46390213 67.22064377 -66.86374786 66.61774017 -66.2454071 65.99656677 C-65.58869522 65.34704544 -64.93198334 64.69752411 -64.25537109 64.02832031 C-63.56257553 63.3352327 -62.86977997 62.64214508 -62.1559906 61.92805481 C-59.86651526 59.63997201 -57.5700387 57.35905349 -55.2734375 55.078125 C-53.68402291 53.4924408 -52.09504952 51.90631426 -50.50650024 50.31976318 C-46.32532415 46.14622146 -42.13817654 41.97872083 -37.94976807 37.81243896 C-33.67643937 33.55957281 -29.40877027 29.30103581 -25.140625 25.04296875 C-16.76595419 16.68974441 -8.38496557 8.34288952 0 0 Z M-4.18344116 14.93460083 C-5.04227402 15.80421951 -5.04227402 15.80421951 -5.91845703 16.69140625 C-6.52347046 17.29612762 -7.12848389 17.900849 -7.75183105 18.52389526 C-9.75859911 20.53206121 -11.75818286 22.5472279 -13.7578125 24.5625 C-15.14457384 25.95298983 -16.5317762 27.34303994 -17.91940308 28.73266602 C-21.57675501 32.39766728 -25.22806233 36.06863427 -28.87817383 39.74084473 C-32.60137195 43.48447331 -36.33021301 47.22247166 -40.05859375 50.9609375 C-47.37795282 58.30176941 -54.69094319 65.64891137 -62 73 C-60.36934355 77.13625009 -57.36776548 79.89956599 -54.26513672 82.96191406 C-53.67963043 83.5477124 -53.09412415 84.13351074 -52.49087524 84.73706055 C-50.55851644 86.66802839 -48.61917484 88.59181947 -46.6796875 90.515625 C-45.33689544 91.85468611 -43.99454487 93.19419009 -42.65261841 94.53411865 C-39.12246283 98.05664429 -35.58634194 101.57312203 -32.0489502 105.08837891 C-28.43917149 108.67768551 -24.83505985 112.27267256 -21.23046875 115.8671875 C-14.15918442 122.91703318 -7.08158587 129.96050337 0 137 C4.13625009 135.36934355 6.89956599 132.36776548 9.96191406 129.26513672 C10.5477124 128.67963043 11.13351074 128.09412415 11.73706055 127.49087524 C13.66802839 125.55851644 15.59181947 123.61917484 17.515625 121.6796875 C18.85468611 120.33689544 20.19419009 118.99454487 21.53411865 117.65261841 C25.05664429 114.12246283 28.57312203 110.58634194 32.08837891 107.0489502 C35.67768551 103.43917149 39.27267256 99.83505985 42.8671875 96.23046875 C49.91703318 89.15918442 56.96050337 82.08158587 64 75 C62.36862306 70.87467721 59.38511914 68.10362738 56.296875 65.03808594 C55.7145813 64.4522876 55.1322876 63.86648926 54.53234863 63.26293945 C52.6098942 61.33169543 50.68023189 59.40784337 48.75 57.484375 C47.41214187 56.14516979 46.07458076 54.80566779 44.73730469 53.46588135 C41.93618463 50.66181409 39.13148185 47.86139336 36.32421875 45.06347656 C32.71912923 41.46980329 29.12312101 37.86719749 25.52972412 34.26183701 C22.77105754 31.49595976 20.00766543 28.73484361 17.24279785 25.97516632 C15.91439817 24.64810419 14.58749189 23.31954547 13.26208496 21.98949432 C11.41388198 20.1362368 9.55943234 18.28947076 7.703125 16.44433594 C7.15241333 15.88957581 6.60170166 15.33481567 6.03430176 14.76324463 C1.34428415 10.12563363 0.4685194 10.30702836 -4.18344116 14.93460083 Z " fill="#030303" transform="translate(249,176)"/>
</svg>
